{"title":"Star Trek Into Darkness (HD 720p).m4v","uid":11365391,"size":4694537297,"categoryP":"video","categoryS":"hd___movies","magnet":"?xt=urn:btih:7ef239a09f842551b66037ffecc6409736fa6fa7&amp;dn=Star+Trek+Into+Darkness+%28HD+720p%29.m4v&amp;tr=udp%3A%2F%2Ftracker.openbittorrent.com%3A80&amp;tr=udp%3A%2F%2Fopen.demonii.com%3A1337&amp;tr=udp%3A%2F%2Ftracker.coppersurfer.tk%3A6969&amp;tr=udp%3A%2F%2Fexodus.desync.com%3A6969","seeders":1,"leechers":0,"uploader":"arctictpb","files":1,"time":1415038176,"description":"General\nComplete name : Star Trek Into Darkness (HD 720p).m4v\nFormat : MPEG-4\nFormat profile : Base Media / Version 2\nCodec ID : mp42\nFile size : 4.37 GiB\nDuration : 2h 12mn\nOverall bit rate mode : Variable\nOverall bit rate : 4 738 Kbps\nMovie name : Star Trek Into Darkness\nPerformer : J.J. Abrams\nComposer : Michael Giacchino\nExecutive producer : Jeffrey Chernov, David Ellison, Dana Goldberg, Paul Schwake\nGenre : Action, Adventure, Science Fiction\nContentType : Short Film\nDescription : When the crew of the Enterprise is called back home, they find an unstoppable force of terror from within their own organization has detonated the fleet and everything it stands for, leaving our world in a state of crisis.  With a personal score to settle, Captain Kirk leads a manhunt to a war-zone world to capture a one man weapon of mass destruction. As our heroes are propelled into an epic chess game of life and death, love will be challenged, friendships will be torn apart, and sacrifices must be made for the only family Kirk has left: his crew.\nRecorded date : 2013-05-16\nWriting application : HandBrake 6469svn 2014102701\nCover : Yes\nRating : None\nLongDescription : When the crew of the Enterprise is called back home, they find an unstoppable force of terror from within their own organization has detonated the fleet and everything it stands for, leaving our world in a state of crisis.  With a personal score to settle, Captain Kirk leads a manhunt to a war-zone world to capture a one man weapon of mass destruction. As our heroes are propelled into an epic chess game of life and death, love will be challenged, friendships will be torn apart, and sacrifices must be made for the only family Kirk has left: his crew.\nHDVideo : Yes\nContentRating : mpaa|PG-13|300|\n\n\nVideo\nID : 1\nFormat : AVC\nFormat/Info : Advanced Video Codec\nFormat profile : &lt;a class=&quot;__cf_email__&quot; href=&quot;/cdn-cgi/l/email-protection&quot; data-cfemail=&quot;d199b8b6b9919de2ffe0&quot;&gt;[email&amp;#160;protected]&lt;/a&gt;&lt;script cf-hash='f9e31' type=&quot;text/javascript&quot;&gt;\n/* &lt;![CDATA[ */!function(){try{var t=&quot;currentScript&quot;in document?document.currentScript:function(){for(var t=document.getElementsByTagName(&quot;script&quot;),e=t.length;e--;)if(t[e].getAttribute(&quot;cf-hash&quot;))return t[e]}();if(t&amp;&amp;t.previousSibling){var e,r,n,i,c=t.previousSibling,a=c.getAttribute(&quot;data-cfemail&quot;);if(a){for(e=&quot;&quot;,r=parseInt(a.substr(0,2),16),n=2;a.length-n;n+=2)i=parseInt(a.substr(n,2),16)^r,e+=String.fromCharCode(i);e=document.createTextNode(e),c.parentNode.replaceChild(e,c)}}}catch(u){}}();/* ]]&gt; */&lt;/script&gt;\nFormat settings, CABAC : Yes\nFormat settings, ReFrames : 4 frames\nCodec ID : avc1\nCodec ID/Info : Advanced Video Coding\nDuration : 2h 12mn\nBit rate : 3 855 Kbps\nWidth : 1 280 pixels\nHeight : 534 pixels\nDisplay aspect ratio : 2.40:1\nOriginal display aspect ratio : 2.40:1\nFrame rate mode : Variable\nFrame rate : 23.976 fps\nMinimum frame rate : 21.516 fps\nMaximum frame rate : 23.981 fps\nColor space : YUV\nChroma subsampling : 4:2:0\nBit depth : 8 bits\nScan type : Progressive\nBits/(Pixel*Frame) : 0.235\nStream size : 3.56 GiB (81%)\nWriting library : x264 core 142 r2479 dd79a61\nEncoding settings : cabac=1 / ref=4 / deblock=1:0:0 / analyse=0x3:0x133 / me=umh / subme=10 / psy=1 / psy_rd=1.00:0.15 / mixed_ref=1 / me_range=32 / chroma_me=1 / trellis=2 / 8x8dct=1 / cqm=0 / deadzone=21,11 / fast_pskip=1 / chroma_qp_offset=-3 / threads=12 / lookahead_threads=1 / sliced_threads=0 / nr=0 / decimate=1 / interlaced=0 / bluray_compat=0 / constrained_intra=0 / bframes=4 / b_pyramid=2 / b_adapt=2 / b_bias=0 / direct=3 / weightb=1 / open_gop=0 / weightp=2 / keyint=240 / keyint_min=24 / scenecut=40 / intra_refresh=0 / rc_lookahead=60 / rc=crf / mbtree=1 / crf=19.0 / qcomp=0.60 / qpmin=0 / qpmax=69 / qpstep=4 / vbv_maxrate=17500 / vbv_bufsize=17500 / crf_max=0.0 / nal_hrd=none / filler=0 / ip_ratio=1.40 / aq=1:1.00\nColor primaries : BT.709\nTransfer characteristics : BT.709\nMatrix coefficients : BT.709\n\nAudio #1\nID : 2\nFormat : AAC\nFormat/Info : Advanced Audio Codec / Dolby Pro Logic II\nFormat profile : LC\nCodec ID : 40\nDuration : 2h 12mn\nBit rate mode : Variable\nBit rate : 230 Kbps\nMaximum bit rate : 421 Kbps\nChannel(s) : 2 channels\nChannel positions : Front: L R\nSampling rate : 48.0 KHz\nCompression mode : Lossy\nStream size : 218 MiB (5%)\nTitle : Stereo\nLanguage : English\n\n\nAudio #2\nID : 3\nFormat : AC-3\nFormat/Info : Audio Coding 3\nMode extension : CM (complete main)\nFormat settings, Endianness : Big\nCodec ID : ac-3\nDuration : 2h 12mn\nBit rate mode : Constant\nBit rate : 640 Kbps\nChannel(s) : 6 channels\nChannel positions : Front: L C R, Side: L R, LFE\nSampling rate : 48.0 KHz\nBit depth : 16 bits\nCompression mode : Lossy\nStream size : 605 MiB (14%)\nTitle : Surround\nLanguage : English\n\n\nMenu\nID : 4\nCodec ID : text\nDuration : 2h 12mn\nLanguage : English\n00:00:00.000 : Chapter 1\n00:10:20.458 : Chapter 2\n00:19:21.582 : Chapter 3\n00:30:04.057 : Chapter 4\n00:40:09.203 : Chapter 5\n00:46:05.351 : Chapter 6\n00:56:38.316 : Chapter 7\n01:06:35.872 : Chapter 8\n01:12:55.751 : Chapter 9\n01:22:45.841 : Chapter 10\n01:30:54.829 : Chapter 11\n01:38:36.457 : Chapter 12\n01:47:09.636 : Chapter 13\n01:54:17.230 : Chapter 14\n01:59:20.742 : Chapter 15\n02:03:18.396 : Chapter 16\nBit rate mode : VBR","torrent":{"xt":"urn:btih:7ef239a09f842551b66037ffecc6409736fa6fa7","amp;dn":"Star+Trek+Into+Darkness+%28HD+720p%29.m4v","amp;tr":["udp%3A%2F%2Ftracker.openbittorrent.com%3A80","udp%3A%2F%2Fopen.demonii.com%3A1337","udp%3A%2F%2Ftracker.coppersurfer.tk%3A6969","udp%3A%2F%2Fexodus.desync.com%3A6969"],"infoHash":"7ef239a09f842551b66037ffecc6409736fa6fa7","infoHashBuffer":{"type":"Buffer","data":[126,242,57,160,159,132,37,81,182,96,55,255,236,198,64,151,54,250,111,167]},"announce":[],"urlList":[]}}